<?xml version="1.0" standalone="no"?>
<!DOCTYPE svg PUBLIC "-//W3C//DTD SVG 20010904//EN"
 "http://www.w3.org/TR/2001/REC-SVG-20010904/DTD/svg10.dtd">
<svg version="1.0" xmlns="http://www.w3.org/2000/svg"
 width="740.000000pt" height="740.000000pt" viewBox="0 0 740.000000 740.000000"
 preserveAspectRatio="xMidYMid meet">


  <g transform="translate(0.000000,740.000000) scale(0.100000,-0.100000)"
     fill="#000000" stroke="none">
    <path d="M3495 5749 c-162 -17 -373 -78 -516 -150 -122 -61 -274 -173 -380
    -279 -308 -310 -464 -732 -429 -1163 30 -367 171 -669 434 -933 218 -218 465
    -349 771 -411 137 -27 434 -25 572 5 293 63 540 198 748 407 212 212 344 455
    410 755 9 44 19 146 22 247 l6 172 -94 -25 c-52 -14 -97 -28 -101 -31 -5 -2
    -8 -55 -8 -116 0 -698 -559 -1257 -1255 -1257 -475 0 -911 271 -1124 698 -77
    154 -131 384 -131 558 0 103 24 258 56 362 125 410 464 738 874 846 245 65
    484 58 717 -19 159 -53 277 -118 406 -223 l68 -55 124 39 c69 21 125 42 125
    46 0 17 -192 197 -266 250 -304 218 -664 315 -1029 277z"/>
    <path d="M5024 5205 c-41 -100 15 -323 106 -417 53 -55 76 -60 92 -20 18 45
    12 179 -11 252 -35 108 -41 106 -41 -10 -1 -114 -13 -118 -24 -7 -9 87 -39
    183 -67 213 -30 32 -37 30 -55 -11z"/>
    <path d="M4296 5001 c-356 -114 -656 -213 -667 -219 -46 -29 -45 -167 3 -268
    23 -50 73 -102 103 -110 12 -3 106 15 211 40 104 25 401 95 659 156 259 61
    478 113 488 116 16 5 14 10 -13 40 -76 87 -139 289 -125 402 4 28 3 52 -2 51
    -4 0 -300 -94 -657 -208z m604 101 c0 -14 -92 -44 -541 -175 -298 -87 -543
    -156 -546 -154 -2 3 51 22 118 43 67 21 305 98 528 170 223 73 414 133 424
    133 10 1 17 -6 17 -17z"/>
    <path d="M4220 5136 c0 -19 17 -29 25 -16 3 5 0 10 -7 10 -9 0 -9 3 2 10 13 8
    12 10 -2 10 -10 0 -18 -6 -18 -14z"/>
    <path d="M3934 5115 c-15 -23 -15 -27 0 -50 35 -53 103 -11 80 49 -3 9 -10 13
    -15 10 -5 3 -9 0 -9 5 0 21 -40 11 -56 -14z"/>
    <path d="M3415 5122 c-5 -4 -10 -18 -10 -32 0 -18 6 -25 19 -25 27 0 43 29 27
    49 -15 18 -21 19 -36 8z m30 -42 c-3 -5 -12 -10 -18 -10 -7 0 -6 4 3 10 19 12
    23 12 15 0z"/>
    <path d="M3012 5014 c4 -21 22 -23 26 -1 2 10 -3 17 -13 17 -10 0 -15 -6 -13
    -16z"/>
    <path d="M2820 4680 c0 -13 5 -20 13 -17 6 2 12 10 12 17 0 7 -6 15 -12 18 -8
    2 -13 -5 -13 -18z"/>
    <path d="M3143 4517 c-206 -68 -381 -130 -392 -141 -40 -36 -13 -96 42 -96 34
    0 778 178 788 189 3 3 -4 29 -16 57 l-21 51 -269 -78 c-149 -43 -274 -77 -278
    -76 -8 2 93 36 381 127 136 43 162 54 162 71 0 10 -6 19 -12 18 -7 0 -180 -56
    -385 -122z"/>

    <!-- 山的主體：單獨設為橘色 -->
    <path fill="#FF7A00" d="M3584 4316 c-32 -14 -159 -148 -159 -169 -1 -7 -6 -11 -12 -10 -6 1
    -27 -16 -47 -37 -20 -22 -42 -40 -49 -40 -19 0 -149 -135 -140 -145 4 -4 3 -5
    -3 -2 -7 4 -36 -19 -67 -53 -31 -33 -58 -60 -61 -60 -2 0 -22 18 -43 41 -21
    22 -48 41 -58 43 -11 2 -18 5 -15 9 3 3 -6 17 -19 31 -19 20 -31 24 -62 21
    -22 -2 -37 0 -34 5 5 8 -30 34 -47 35 -4 0 -13 7 -20 15 -11 12 -10 12 7 0 20
    -14 20 -14 1 7 -10 13 -23 20 -29 16 -5 3 -7 -1 -4 4 6 10 -12 31 -39 46 -7
    4 -18 -1 -25 -10 -12 -14 -12 -16 0 -8 10 5 12 4 7 -4 -4 -6 -11 -9 -15 -7 -4
    3 -27 -14 -50 -38 l-42 -43 16 -57 c9 -31 21 -54 26 -51 5 4 8 -2 7 -12 -3
    -37 2 -54 14 -47 7 4 8 3 4 -5 -12 -18 119 -251 141 -251 3 0 -1 8 -8 18 -11
    15 -11 15 1 4 8 -7 15 -20 15 -30 0 -9 6 -16 13 -14 8 1 11 -1 8 -6 -8 -13 24
    -53 36 -46 6 4 8 2 5 -3 -8 -13 17 -36 27 -25 4 4 6 2 4 -4 -7 -24 194 -180
    215 -167 6 3 7 1 3 -5 -6 -11 0 -14 20 -11 4 0 10 -4 13 -9 17 -26 183 -93
    288 -117 299 -67 606 -17 865 142 32 20 55 40 51 46 -3 6 -1 7 5 3 6 -4 24 5
    39 18 15 14 43 37 60 51 18 15 32 31 30 38 -1 6 3 11 8 12 17 1 36 16 30 25
    -3 5 0 12 6 16 8 5 10 2 5 -7 -4 -8 4 -1 18 15 14 17 22 34 20 38 -3 5 -1 7 4
    6 14 -5 64 60 56 73 -5 8 -3 9 6 4 10 -6 12 -4 7 8 -3 9 -1 19 5 23 7 4 8 3 4
    -4 -4 -7 -5 -12 -2 -12 11 0 67 111 60 121 -4 7 -3 9 3 6 14 -9 54 93 48 123
    -4 20 -4 21 3 6 7 -17 11 -12 21 28 11 44 10 48 -11 66 -23 19 -27 21 -50 24
    -7 0 -13 7 -13 13 0 7 -10 20 -23 29 -13 9 -42 34 -65 55 -23 21 -45 39 -49
    39 -4 0 -9 -17 -11 -37 -4 -36 -4 -36 -3 5 0 52 -24 83 -52 65 -9 -6 -16 -17
    -14 -25 2 -7 0 -10 -4 -6 -4 4 -28 -10 -54 -32 -26 -22 -67 -48 -91 -59 -24
    -10 -71 -46 -103 -80 l-60 -60 -32 24 c-17 13 -35 21 -39 17 -3 4 -5 2 -3 5
    4 16 -102 105 -119 99 -8 -3 -12 -2 -9 3 3 5 -7 11 -23 14 -16 4 -45 20 -65
    37 -19 17 -39 31 -43 31 -4 -1 -8 5 -8 12 -1 6 -7 11 -14 9 -7 -1 -10 1 -7 6
    4 7 -165 173 -176 172 -2 -1 -17 -7 -34 -14z"/>
    <path d="M4070 4310 c0 -5 5 -10 10 -10 6 0 10 5 10 10 0 6 -4 10 -10 10 -5 0
    -10 -4 -10 -10z"/>
    <path d="M4710 4205 c-19 -23 -8 -50 20 -50 19 0 26 6 28 24 5 35 -26 53 -48
    26z"/>
    <path d="M3287 4194 c-13 -13 -7 -24 14 -24 11 0 19 5 17 12 -5 14 -22 21 -31
    12z"/>
    <path d="M4107 4134 c-13 -13 -7 -24 14 -24 11 0 19 5 17 12 -5 14 -22 21 -31
    12z"/>
    <path d="M2952 4108 c-7 -7 -12 -24 -12 -38 0 -31 17 -50 45 -50 29 0 45 19
    45 52 0 40 -51 63 -78 36z"/>
  </g>
</svg>